<svg t="1731909145934" class="icon" viewBox="0 0 1024 1024" version="1.1" xmlns="http://www.w3.org/2000/svg" p-id="14201" width="32" height="32"><path d="M571.7 514.1l164.9-164.9c16.3-16.3 16.3-43.1 0-59.4-16.3-16.3-43.1-16.3-59.4 0L512.3 454.7 347.4 289.8c-16.3-16.3-43.1-16.3-59.4 0-16.3 16.3-16.3 43.1 0 59.4l164.9 164.9L288 679c-16.3 16.3-16.3 43.1 0 59.4 16.3 16.3 43.1 16.3 59.4 0l164.9-164.9 164.9 164.9c16.3 16.3 43.1 16.3 59.4 0 16.3-16.3 16.3-43.1 0-59.4L571.7 514.1z" p-id="14202" fill="#381A1A"></path></svg>